# xmcd
#
# Track frame offsets:
#	150
#	6835
#	36675
#	64110
#	96320
#
# Disc length: 1530 seconds
#
# Revision: 1
# Processed by: cddbd v1.5.1PL0 Copyright (c) Steve Scherf et al.
# Submitted via: EasyCDDAExtractor 5.1.0
#
DISCID=4105f805
DTITLE=Black Sabbath - Costa Mesa 15-11-92 Reunion Gig
DYEAR=1992
DGENRE=Hard Rock
TTITLE0=Intro
TTITLE1=Black Sabbath
TTITLE2=Fairies Wear Boots
TTITLE3=Iron Man
TTITLE4=Paranoid
EXTD=
EXTT0=
EXTT1=
EXTT2=
EXTT3=
EXTT4=
PLAYORDER=
